<mxfile host="app.diagrams.net" modified="2023-10-21T07:51:03.269Z" agent="Mozilla/5.0 (Macintosh; Intel Mac OS X 10_15_7) AppleWebKit/537.36 (KHTML, like Gecko) Chrome/118.0.0.0 Safari/537.36" version="22.0.6" etag="tyls13HKFR9SKhEyn1MA" type="github">
  <diagram name="Page-1" id="P2nIaUxtyXKpo_c9E_22">
    <mxGraphModel>
      <root>
        <mxCell id="0" />
        <mxCell id="1" parent="0" />
      </root>
    </mxGraphModel>
  </diagram>
</mxfile>
